PathFileType	4	(X/Y/Z)	/Users/itak/Documents/Research/Walk-IL/dataset/trc/00434_00167.trc
DataRate	CameraRate	NumFrames	NumMarkers	Units	OrigDataRate	OrigDataStartFrame	OrigNumFrames
100.000000	100.000000	4	53	mm	100.000000	633	724
Frame#	Time	RPSI			LPSI			L3			STRN			T10			C7			CLAV			RBAK			LBAK			LSHO			LUPA			LAEL			LAOL			LWTS			LWPS			LFRA			LIFD			LHPS			LHTS			RSHO			RUPA			RAEL			RAOL			RWTS			RWPS			RFRA			RIFD			RHTS			RHPS			RBHD			LFHD			RFHD			LBHD			LHIP			RHIP			RASI			LASI			LKNE			LTHI			LANK			LTIP			LTOE			LMT1			LMT5			LHEE			RKNE			RTHI			RANK			RTIP			RTOE			RMT1			RMT5			RHEE			
		X1	Y1	Z1	X2	Y2	Z2	X3	Y3	Z3	X4	Y4	Z4	X5	Y5	Z5	X6	Y6	Z6	X7	Y7	Z7	X8	Y8	Z8	X9	Y9	Z9	X10	Y10	Z10	X11	Y11	Z11	X12	Y12	Z12	X13	Y13	Z13	X14	Y14	Z14	X15	Y15	Z15	X16	Y16	Z16	X17	Y17	Z17	X18	Y18	Z18	X19	Y19	Z19	X20	Y20	Z20	X21	Y21	Z21	X22	Y22	Z22	X23	Y23	Z23	X24	Y24	Z24	X25	Y25	Z25	X26	Y26	Z26	X27	Y27	Z27	X28	Y28	Z28	X29	Y29	Z29	X30	Y30	Z30	X31	Y31	Z31	X32	Y32	Z32	X33	Y33	Z33	X34	Y34	Z34	X35	Y35	Z35	X36	Y36	Z36	X37	Y37	Z37	X38	Y38	Z38	X39	Y39	Z39	X40	Y40	Z40	X41	Y41	Z41	X42	Y42	Z42	X43	Y43	Z43	X44	Y44	Z44	X45	Y45	Z45	X46	Y46	Z46	X47	Y47	Z47	X48	Y48	Z48	X49	Y49	Z49	X50	Y50	Z50	X51	Y51	Z51	X52	Y52	Z52	X53	Y53	Z53	

634	6.33	1001.345581054688	959.3626098632812	946.7267456054688	1098.027465820312	956.8209838867188	842.468017578125	1048.046997070312	1050.031372070312	911.664794921875	1255.050170898438	1249.130126953125	1065.293579101562	1029.874633789062	1172.798706054688	892.865966796875	1068.50146484375	1442.749267578125	935.062744140625	1226.195190429688	1361.212158203125	1035.722900390625	962.6210327148438	1323.003173828125	975.1889038085938	1103.798828125	1394.35791015625	838.2767333984375	1234.71435546875	1414.006225585938	834.8516845703125	1277.0126953125	1293.979614257812	744.589599609375	1291.91357421875	1077.234252929688	723.7075805664062	1191.680053710938	1068.671997070312	746.6989135742188	1325.347778320312	870.5267333984375	778.7192993164062	1304.6865234375	857.3132934570312	708.5878295898438	1305.793212890625	988.5962524414062	715.8582763671875	1335.374755859375	706.3055419921875	778.7735595703125	1314.262084960938	776.20068359375	712.1220703125	1347.193725585938	785.8759765625	774.6824340820312	1029.293701171875	1413.27783203125	1109.020629882812	968.0748291015625	1353.111328125	1158.576904296875	920.6368408203125	1065.736328125	1191.669677734375	908.7360229492188	1054.070190429688	1126.359985351562	1002.037536621094	856.0748291015625	1228.493041992188	916.6486206054688	846.1771240234375	1212.233520507812	911.7105102539062	1008.231323242188	1198.264038085938	988.0652465820312	697.0120849609375	1223.879028320312	995.876953125	755.0150756835938	1240.552612304688	924.1345825195312	758.363525390625	1217.487548828125	1085.822875976562	1644.263549804688	1043.158325195312	1285.650756835938	1657.63671875	992.1284790039062	1210.66650390625	1664.462036132812	1098.346069335938	1174.091430664062	1639.391479492188	889.4671630859375	1275.285888671875	846.9857788085938	850.4630737304688	992.6548461914062	853.667724609375	1127.781616210938	1110.656127929688	896.4393310546875	1154.213989257812	1293.496215820312	888.5986328125	973.6309204101562	1239.074462890625	424.5380554199219	911.7863159179688	1275.104858398438	578.6760864257812	903.5304565429688	1147.607543945312	25.68496894836426	861.1857299804688	1224.537475585938	267.7209777832031	901.6984252929688	1249.1865234375	30.3228816986084	1074.312255859375	1178.376098632812	37.44159317016602	1037.109252929688	1260.029052734375	32.65447998046875	957.8621826171875	1075.58203125	30.78452110290527	854.8535766601562	1032.621459960938	456.51318359375	1130.71240234375	1030.713256835938	716.048583984375	1174.690063476562	1014.465881347656	31.95882797241211	1116.456909179688	1023.619995117188	313.1468811035156	1143.36376953125	1213.077026367188	36.29789733886719	1210.04638671875	1183.564453125	42.25281524658203	1143.828002929688	1104.07373046875	36.83496475219727	1217.22705078125	989.6470336914062	23.79328346252441	1039.7841796875	
635	6.34	1001.165771484375	959.29150390625	948.0665893554688	1097.841674804688	956.8973388671875	843.6085205078125	1047.9365234375	1049.894409179688	912.891845703125	1255.05029296875	1249.025512695312	1066.439819335938	1029.964599609375	1172.7314453125	894.1950073242188	1068.456909179688	1442.753662109375	936.26513671875	1226.1806640625	1361.1064453125	1036.876342773438	962.5756225585938	1322.939697265625	976.2363891601562	1103.708618164062	1394.396728515625	839.4796142578125	1234.600952148438	1414.11181640625	836.0278930664062	1276.415893554688	1294.311157226562	745.3892822265625	1290.7685546875	1077.662475585938	723.4197998046875	1190.615112304688	1068.995727539062	746.7781372070312	1325.013916015625	871.0756225585938	778.7080078125	1303.927734375	857.6403198242188	708.72705078125	1304.804565429688	989.0094604492188	715.7063598632812	1334.713134765625	706.6580200195312	779.1121215820312	1313.2265625	776.4429321289062	712.4847412109375	1346.517333984375	786.1754150390625	774.8155517578125	1029.22802734375	1413.203491210938	1110.11474609375	967.8716430664062	1352.999145507812	1159.522094726562	920.1064453125	1065.840209960938	1193.1474609375	908.1425170898438	1053.84130859375	1127.806030273438	1002.328186035156	856.7294921875	1230.787719726562	916.9426879882812	846.3435668945312	1214.660278320312	911.3289794921875	1008.290405273438	1199.953002929688	989.0484008789062	697.611328125	1227.221069335938	996.6157836914062	755.7349243164062	1243.521484375	924.8331298828125	758.6233520507812	1220.490844726562	1085.73876953125	1644.17333984375	1044.43310546875	1285.610961914062	1657.638305664062	993.5070190429688	1210.568481445312	1664.387084960938	1099.689819335938	1174.092163085938	1639.38720703125	890.7855834960938	1275.08740234375	847.065673828125	851.3380126953125	992.8153686523438	853.5087280273438	1129.009765625	1110.817260742188	896.22509765625	1155.324829101562	1293.499267578125	888.5718383789062	974.5458374023438	1238.93017578125	424.5892639160156	912.1292114257812	1275.032592773438	578.6914672851562	904.0096435546875	1147.595092773438	25.77572631835938	861.1959228515625	1224.387451171875	267.6557922363281	901.8085327148438	1249.18994140625	30.3108959197998	1074.345581054688	1178.373657226562	37.42962646484375	1037.1396484375	1260.027954101562	32.64893341064453	957.889404296875	1075.573120117188	30.81626319885254	854.88525390625	1032.774780273438	456.4255676269531	1131.310302734375	1030.34912109375	716.1353759765625	1175.179443359375	1014.480651855469	31.96573257446289	1116.449829101562	1023.758117675781	313.0000610351562	1143.712158203125	1213.113525390625	36.30134201049805	1209.9716796875	1183.578857421875	42.22470092773438	1143.81640625	1104.0927734375	36.85112380981445	1217.226684570312	989.6836547851562	23.79123687744141	1039.762084960938	
636	6.350000000000001	1000.935363769531	959.2274780273438	949.3816528320312	1097.547607421875	956.9398193359375	844.703369140625	1047.7431640625	1049.756958007812	914.0917358398438	1255.026123046875	1248.90283203125	1067.548461914062	1029.995727539062	1172.674072265625	895.4552612304688	1068.373657226562	1442.730712890625	937.4425048828125	1226.112426757812	1360.990234375	1037.994384765625	962.4840087890625	1322.857055664062	977.2303466796875	1103.607055664062	1394.421142578125	840.6288452148438	1234.492309570312	1414.158447265625	837.1839599609375	1275.932495117188	1294.514282226562	746.310791015625	1290.001342773438	1078.005126953125	723.3866577148438	1189.885498046875	1069.20947265625	746.8846435546875	1324.89990234375	871.5115356445312	778.8587036132812	1303.562622070312	857.916259765625	708.9696655273438	1304.1953125	989.3532104492188	715.7661743164062	1334.325073242188	706.9285278320312	779.513427734375	1312.639770507812	776.6505737304688	712.9071655273438	1346.0927734375	786.38818359375	775.0955810546875	1029.125610351562	1413.081298828125	1111.188720703125	967.6875	1352.773559570312	1160.468627929688	919.7556762695312	1065.849975585938	1194.771362304688	907.7098388671875	1053.48583984375	1129.446533203125	1002.798950195312	857.2982788085938	1233.217651367188	917.4230346679688	846.4967651367188	1217.313598632812	911.1344604492188	1008.271911621094	1201.8173828125	990.0641479492188	698.135009765625	1230.767578125	997.4713134765625	756.3915405273438	1246.66357421875	925.5862426757812	758.7847900390625	1223.681640625	1085.637573242188	1644.077880859375	1045.674560546875	1285.562744140625	1657.611328125	994.8766479492188	1210.449340820312	1664.262939453125	1101.000122070312	1174.092163085938	1639.3876953125	892.0773315429688	1274.779052734375	847.1326904296875	852.1181030273438	992.9532470703125	853.37255859375	1130.205932617188	1110.951171875	896.0342407226562	1156.375854492188	1293.451293945312	888.5554809570312	975.353271484375	1238.800415039062	424.6328125	912.4755249023438	1274.899291992188	578.700927734375	904.4462890625	1147.5849609375	25.86970901489258	861.2034301757812	1224.2412109375	267.5783996582031	901.9320068359375	1249.200805664062	30.30997085571289	1074.3759765625	1178.370361328125	37.41715621948242	1037.170166015625	1260.040161132812	32.65736770629883	957.8987426757812	1075.563842773438	30.85063743591309	854.9200439453125	1032.918823242188	456.3415222167969	1131.887451171875	1029.976440429688	716.2255859375	1175.648315429688	1014.489135742188	31.96887397766113	1116.440551757812	1023.877258300781	312.8583679199219	1144.065185546875	1213.145141601562	36.31004333496094	1209.901977539062	1183.589477539062	42.20169067382812	1143.80517578125	1104.10888671875	36.8660888671875	1217.226318359375	989.7135620117188	23.79274559020996	1039.74755859375	
637	6.36	1000.667236328125	959.1885986328125	950.6533203125	1097.170288085938	956.9657592773438	845.747802734375	1047.483520507812	1049.63720703125	915.2492065429688	1254.972900390625	1248.774047851562	1068.612548828125	1029.960693359375	1172.64013671875	896.6294555664062	1068.248901367188	1442.687133789062	938.5947875976562	1225.990356445312	1360.87548828125	1039.072021484375	962.3504028320312	1322.763671875	978.1766967773438	1103.479370117188	1394.433715820312	841.7269287109375	1234.3720703125	1414.160278320312	838.311279296875	1275.550170898438	1294.609619140625	747.3287353515625	1289.594604492188	1078.272094726562	723.5989379882812	1189.482666015625	1069.328735351562	747.0422973632812	1324.996826171875	871.8433837890625	779.1559448242188	1303.558349609375	858.1477661132812	709.3015747070312	1303.947143554688	989.6371459960938	716.0226440429688	1334.210205078125	707.1297607421875	779.964111328125	1312.479248046875	776.8307495117188	713.3716430664062	1345.92626953125	786.5317993164062	775.49951171875	1028.986694335938	1412.927124023438	1112.2431640625	967.5214233398438	1352.471435546875	1161.424682617188	919.5792236328125	1065.788452148438	1196.526245117188	907.4345703125	1053.037475585938	1131.274169921875	1003.43994140625	857.8060302734375	1235.759399414062	918.0747680664062	846.6483764648438	1220.1572265625	911.1242065429688	1008.201049804688	1203.843994140625	991.1209106445312	698.60009765625	1234.495361328125	998.4514770507812	757.0195922851562	1249.953735351562	926.4147338867188	758.8809204101562	1227.042114257812	1085.523681640625	1643.979858398438	1046.886108398438	1285.505249023438	1657.5615234375	996.2318725585938	1210.309814453125	1664.09912109375	1102.27490234375	1174.08935546875	1639.398315429688	893.3397827148438	1274.389282226562	847.1912841796875	852.8150024414062	993.074462890625	853.2625732421875	1131.359985351562	1111.064208984375	895.8764038085938	1157.366088867188	1293.35693359375	888.551025390625	976.0628051757812	1238.685302734375	424.6676330566406	912.8291015625	1274.706909179688	578.7028198242188	904.8510131835938	1147.578125	25.96531677246094	861.2116088867188	1224.1015625	267.4969787597656	902.0718994140625	1249.218383789062	30.32179641723633	1074.404052734375	1178.36474609375	37.40130996704102	1037.200805664062	1260.066284179688	32.6827278137207	957.890380859375	1075.55322265625	30.88655662536621	854.958251953125	1033.040649414062	456.2562255859375	1132.4384765625	1029.582397460938	716.3148193359375	1176.091552734375	1014.49169921875	31.96706771850586	1116.430053710938	1023.965698242188	312.7263488769531	1144.41943359375	1213.171875	36.32246017456055	1209.839599609375	1183.59619140625	42.18450546264648	1143.796264648438	1104.120971679688	36.87725448608398	1217.2265625	989.7350463867188	23.79926681518555	1039.741943359375	
